<svg width="26" height="29" viewBox="0 0 26 29" fill="none" xmlns="http://www.w3.org/2000/svg">
<g id="&#231;&#187;&#132; 398" clip-path="url(#clip0_255_676)">
<path id="TOP" d="M8.5402 12.9635H6.1162V20.3315H5.0362V12.9635H2.6002V12.0035H8.5402V12.9635ZM12.9657 20.4515C12.3737 20.4515 11.8537 20.3875 11.4057 20.2595C10.9657 20.1235 10.5937 19.8955 10.2897 19.5755C9.98567 19.2475 9.75767 18.8075 9.60567 18.2555C9.45367 17.7035 9.37767 17.0075 9.37767 16.1675C9.37767 15.3275 9.45367 14.6355 9.60567 14.0915C9.75767 13.5395 9.98567 13.0995 10.2897 12.7715C10.5937 12.4435 10.9657 12.2155 11.4057 12.0875C11.8537 11.9515 12.3737 11.8835 12.9657 11.8835C13.5577 11.8835 14.0777 11.9515 14.5257 12.0875C14.9737 12.2155 15.3457 12.4435 15.6417 12.7715C15.9457 13.0995 16.1737 13.5395 16.3257 14.0915C16.4777 14.6355 16.5537 15.3275 16.5537 16.1675C16.5537 17.0075 16.4777 17.7035 16.3257 18.2555C16.1737 18.8075 15.9457 19.2475 15.6417 19.5755C15.3457 19.8955 14.9737 20.1235 14.5257 20.2595C14.0777 20.3875 13.5577 20.4515 12.9657 20.4515ZM12.9657 19.5275C13.4777 19.5275 13.8937 19.4635 14.2137 19.3355C14.5337 19.2075 14.7817 19.0075 14.9577 18.7355C15.1417 18.4635 15.2657 18.1155 15.3297 17.6915C15.4017 17.2675 15.4377 16.7595 15.4377 16.1675C15.4377 15.5915 15.4017 15.0915 15.3297 14.6675C15.2657 14.2435 15.1417 13.8955 14.9577 13.6235C14.7817 13.3435 14.5337 13.1355 14.2137 12.9995C13.8937 12.8635 13.4777 12.7955 12.9657 12.7955C12.4617 12.7955 12.0497 12.8635 11.7297 12.9995C11.4097 13.1355 11.1577 13.3435 10.9737 13.6235C10.7977 13.8955 10.6737 14.2435 10.6017 14.6675C10.5377 15.0915 10.5057 15.5915 10.5057 16.1675C10.5057 16.7595 10.5377 17.2675 10.6017 17.6915C10.6737 18.1155 10.7977 18.4635 10.9737 18.7355C11.1577 19.0075 11.4097 19.2075 11.7297 19.3355C12.0497 19.4635 12.4617 19.5275 12.9657 19.5275ZM18.5356 12.0035H20.8516C21.4356 12.0035 21.9236 12.0555 22.3156 12.1595C22.7076 12.2635 23.0196 12.4235 23.2516 12.6395C23.4916 12.8555 23.6596 13.1315 23.7556 13.4675C23.8516 13.8035 23.8996 14.2035 23.8996 14.6675C23.8996 15.1555 23.8396 15.5715 23.7196 15.9155C23.6076 16.2595 23.4276 16.5395 23.1796 16.7555C22.9396 16.9715 22.6236 17.1315 22.2316 17.2355C21.8476 17.3315 21.3876 17.3795 20.8516 17.3795H19.6156V20.3315H18.5356V12.0035ZM20.7556 16.4795C21.1396 16.4795 21.4636 16.4515 21.7276 16.3955C21.9916 16.3395 22.1996 16.2435 22.3516 16.1075C22.5116 15.9635 22.6236 15.7755 22.6876 15.5435C22.7596 15.3115 22.7956 15.0195 22.7956 14.6675C22.7956 14.3475 22.7596 14.0795 22.6876 13.8635C22.6236 13.6395 22.5116 13.4595 22.3516 13.3235C22.1996 13.1875 21.9916 13.0915 21.7276 13.0355C21.4636 12.9715 21.1396 12.9395 20.7556 12.9395H19.6156V16.4795H20.7556Z" fill="white"/>
<path id="&#232;&#183;&#175;&#229;&#190;&#132; 17" d="M2 7.33154L12.3448 0.331543L22 7.33154" stroke="white" stroke-width="2"/>
</g>
<defs>
<clipPath id="clip0_255_676">
<rect width="26" height="28" fill="white" transform="translate(0 0.331543)"/>
</clipPath>
</defs>
</svg>
