<svg width="14" height="10" viewBox="0 0 14 10" fill="none" xmlns="http://www.w3.org/2000/svg">
<path d="M0 5C0 4.45007 0.499632 4 1.11026 4H12.8897C13.5004 4 14 4.45007 14 5C14 5.54993 13.5004 6 12.8897 6H1.11026C0.499632 6 0 5.54993 0 5Z" fill="white"/>
<path d="M8 9.04295C8 8.79467 8.09567 8.55612 8.27742 8.36516L12.3715 4.27926C12.7446 3.90691 13.3472 3.90691 13.7202 4.27926C14.0933 4.6516 14.0933 5.25307 13.7202 5.62526L9.62611 9.72074C9.25302 10.0931 8.65035 10.0931 8.27742 9.72074C8.08607 9.52993 8 9.29123 8 9.04295H8Z" fill="white"/>
<path d="M8 0.957049C8 0.708768 8.09552 0.47022 8.27697 0.279258C8.64947 -0.0930861 9.25118 -0.0930861 9.62351 0.279258L13.7206 4.37474C14.0931 4.74708 14.0931 5.34855 13.7206 5.72074C13.3481 6.09309 12.7464 6.09309 12.3741 5.72074L8.27697 1.62526C8.08594 1.44388 8 1.20518 8 0.957049H8Z" fill="white"/>
</svg>
